<svg width="29" height="29" viewBox="0 0 29 29" fill="none" xmlns="http://www.w3.org/2000/svg">
<path fill-rule="evenodd" clip-rule="evenodd" d="M14.4998 0C11.0567 2.63825e-05 7.72586 1.25623 5.10341 3.54383C2.48096 5.83143 0.737995 9.00114 0.1864 12.4858C-0.365194 15.9704 0.310575 19.5426 2.09279 22.5632C3.875 25.5837 6.64736 27.8555 9.91378 28.972C10.6391 29.1019 10.9073 28.6562 10.9073 28.2657C10.9073 27.9126 10.8891 26.7377 10.8891 25.4966C7.24611 26.1842 6.30307 24.5857 6.01328 23.7496C5.69035 22.9357 5.17881 22.2149 4.52296 21.6494C4.01542 21.371 3.29013 20.6834 4.50475 20.6647C4.96897 20.7163 5.41415 20.8823 5.80237 21.1483C6.19059 21.4144 6.51035 21.7727 6.73443 22.1927C6.93272 22.5579 7.19934 22.8795 7.51903 23.1389C7.83872 23.3983 8.2052 23.5905 8.59745 23.7044C8.98971 23.8184 9.40004 23.8519 9.80493 23.8029C10.2098 23.754 10.6013 23.6237 10.957 23.4194C11.0197 22.6637 11.3481 21.9572 11.881 21.4312C8.65198 21.0594 5.28303 19.7776 5.28303 14.0908C5.26369 12.6126 5.79695 11.1829 6.77335 10.0951C6.32995 8.81093 6.38178 7.40162 6.91824 6.15535C6.91824 6.15535 8.13285 5.76486 10.9057 7.68336C13.2784 7.01427 15.7833 7.01427 18.1561 7.68336C20.9289 5.75042 22.1435 6.15535 22.1435 6.15535C22.68 7.40162 22.7318 8.81093 22.2884 10.0951C23.2678 11.181 23.8015 12.612 23.7787 14.0908C23.7787 19.7963 20.3891 21.0594 17.1634 21.4312C17.5094 21.7909 17.7759 22.2226 17.9448 22.6972C18.1137 23.1718 18.1809 23.6781 18.142 24.1817C18.142 26.1698 18.1238 27.7682 18.1238 28.2699C18.1238 28.6604 18.3954 29.1248 19.1173 28.9762C22.3802 27.8526 25.1471 25.5762 26.9238 22.5537C28.7005 19.5311 29.3712 15.9594 28.8162 12.4766C28.2612 8.9938 26.5166 5.82672 23.894 3.54117C21.2715 1.25562 17.9418 0.00049233 14.4998 0V0Z" fill="#1B1F23"/>
</svg>
