<svg width="127" height="24" viewBox="0 0 127 24" fill="none" xmlns="http://www.w3.org/2000/svg">
<path d="M11.0489 2.92705C11.3483 2.00574 12.6517 2.00574 12.9511 2.92705L14.4697 7.60081C14.6035 8.01284 14.9875 8.2918 15.4207 8.2918H20.335C21.3037 8.2918 21.7065 9.53141 20.9228 10.1008L16.947 12.9894C16.5966 13.244 16.4499 13.6954 16.5838 14.1074L18.1024 18.7812C18.4017 19.7025 17.3472 20.4686 16.5635 19.8992L12.5878 17.0106C12.2373 16.756 11.7627 16.756 11.4122 17.0106L7.43648 19.8992C6.65276 20.4686 5.59828 19.7025 5.89763 18.7812L7.41623 14.1074C7.55011 13.6954 7.40345 13.244 7.05296 12.9894L3.07722 10.1008C2.29351 9.53141 2.69628 8.2918 3.66501 8.2918H8.57929C9.01252 8.2918 9.39647 8.01284 9.53035 7.60081L11.0489 2.92705Z" fill="#FFA900"/>
<path d="M36.649 2.92705C36.9484 2.00574 38.2518 2.00574 38.5512 2.92705L40.0698 7.60081C40.2036 8.01284 40.5876 8.2918 41.0208 8.2918H45.9351C46.9038 8.2918 47.3066 9.53141 46.5229 10.1008L42.5471 12.9894C42.1967 13.244 42.05 13.6954 42.1839 14.1074L43.7025 18.7812C44.0018 19.7025 42.9473 20.4686 42.1636 19.8992L38.1879 17.0106C37.8374 16.756 37.3628 16.756 37.0123 17.0106L33.0366 19.8992C32.2529 20.4686 31.1984 19.7025 31.4977 18.7812L33.0163 14.1074C33.1502 13.6954 33.0035 13.244 32.6531 12.9894L28.6773 10.1008C27.8936 9.53141 28.2964 8.2918 29.2651 8.2918H34.1794C34.6126 8.2918 34.9966 8.01284 35.1304 7.60081L36.649 2.92705Z" fill="#FFA900"/>
<path d="M62.2491 2.92705C62.5485 2.00574 63.8519 2.00574 64.1513 2.92705L65.6698 7.60081C65.8037 8.01284 66.1877 8.2918 66.6209 8.2918H71.5352C72.5039 8.2918 72.9067 9.53141 72.123 10.1008L68.1472 12.9894C67.7967 13.244 67.6501 13.6954 67.784 14.1074L69.3026 18.7812C69.6019 19.7025 68.5474 20.4686 67.7637 19.8992L63.788 17.0106C63.4375 16.756 62.9629 16.756 62.6124 17.0106L58.6367 19.8992C57.853 20.4686 56.7985 19.7025 57.0978 18.7812L58.6164 14.1074C58.7503 13.6954 58.6036 13.244 58.2532 12.9894L54.2774 10.1008C53.4937 9.53141 53.8965 8.2918 54.8652 8.2918H59.7795C60.2127 8.2918 60.5967 8.01284 60.7305 7.60081L62.2491 2.92705Z" fill="#FFA900"/>
<path d="M87.8487 2.92705C88.1481 2.00574 89.4515 2.00574 89.7509 2.92705L91.2695 7.60081C91.4033 8.01284 91.7873 8.2918 92.2205 8.2918H97.1348C98.1035 8.2918 98.5063 9.53141 97.7226 10.1008L93.7468 12.9894C93.3964 13.244 93.2497 13.6954 93.3836 14.1074L94.9022 18.7812C95.2015 19.7025 94.147 20.4686 93.3633 19.8992L89.3876 17.0106C89.0371 16.756 88.5625 16.756 88.212 17.0106L84.2363 19.8992C83.4526 20.4686 82.3981 19.7025 82.6974 18.7812L84.216 14.1074C84.3499 13.6954 84.2033 13.244 83.8528 12.9894L79.877 10.1008C79.0933 9.53141 79.4961 8.2918 80.4648 8.2918H85.3791C85.8123 8.2918 86.1963 8.01284 86.3302 7.60081L87.8487 2.92705Z" fill="#FFA900"/>
<path d="M113.449 2.92705C113.748 2.00574 115.052 2.00574 115.351 2.92705L116.87 7.60081C117.003 8.01284 117.387 8.2918 117.821 8.2918H122.735C123.704 8.2918 124.106 9.53141 123.323 10.1008L119.347 12.9894C118.996 13.244 118.85 13.6954 118.984 14.1074L120.502 18.7812C120.802 19.7025 119.747 20.4686 118.963 19.8992L114.988 17.0106C114.637 16.756 114.163 16.756 113.812 17.0106L109.836 19.8992C109.053 20.4686 107.998 19.7025 108.298 18.7812L109.816 14.1074C109.95 13.6954 109.803 13.244 109.453 12.9894L105.477 10.1008C104.693 9.53141 105.096 8.2918 106.065 8.2918H110.979C111.412 8.2918 111.796 8.01284 111.93 7.60081L113.449 2.92705Z" fill="#FFA900"/>
</svg>
