<svg width="310" height="310" viewBox="0 0 310 310" fill="none" xmlns="http://www.w3.org/2000/svg">
<path d="M193.75 129.167C201.414 129.167 208.906 126.894 215.278 122.636C221.651 118.378 226.617 112.326 229.55 105.246C232.483 98.165 233.251 90.3737 231.755 82.8569C230.26 75.3401 226.57 68.4355 221.15 63.0163C215.731 57.597 208.827 53.9064 201.31 52.4112C193.793 50.916 186.002 51.6834 178.921 54.6163C171.84 57.5492 165.788 62.5159 161.531 68.8883C157.273 75.2607 155 82.7526 155 90.4166C155 100.694 159.083 110.55 166.35 117.817C173.617 125.084 183.473 129.167 193.75 129.167ZM193.75 77.5C196.305 77.5 198.802 78.2575 200.926 79.6768C203.05 81.0961 204.706 83.1134 205.683 85.4736C206.661 87.8339 206.917 90.431 206.418 92.9366C205.92 95.4422 204.69 97.7437 202.883 99.5501C201.077 101.357 198.776 102.587 196.27 103.085C193.764 103.584 191.167 103.328 188.807 102.35C186.447 101.372 184.429 99.7169 183.01 97.5928C181.591 95.4686 180.833 92.9713 180.833 90.4166C180.833 86.9909 182.194 83.7055 184.617 81.2832C187.039 78.8608 190.324 77.5 193.75 77.5Z" fill="#A9BECE"/>
<path d="M284.167 0H25.8333C18.9819 0 12.4111 2.72172 7.56641 7.56641C2.72172 12.4111 0 18.9819 0 25.8333V284.167C0 291.018 2.72172 297.589 7.56641 302.434C12.4111 307.278 18.9819 310 25.8333 310H284.167C291.018 310 297.589 307.278 302.434 302.434C307.278 297.589 310 291.018 310 284.167V25.8333C310 18.9819 307.278 12.4111 302.434 7.56641C297.589 2.72172 291.018 0 284.167 0ZM284.167 284.167H25.8333V206.667L90.4167 142.083L162.621 214.288C167.461 219.099 174.009 221.8 180.833 221.8C187.658 221.8 194.206 219.099 199.046 214.288L219.583 193.75L284.167 258.333V284.167ZM284.167 221.779L237.796 175.408C232.956 170.597 226.408 167.896 219.583 167.896C212.759 167.896 206.211 170.597 201.371 175.408L180.833 195.946L108.629 123.742C103.789 118.93 97.2415 116.23 90.4167 116.23C83.5919 116.23 77.0444 118.93 72.2042 123.742L25.8333 170.113V25.8333H284.167V221.779Z" fill="#A9BECE"/>
</svg>
